<svg width="512" height="512" viewBox="0 0 512 512" fill="none" xmlns="http://www.w3.org/2000/svg">
<rect width="512" height="512" fill="white"/>
<path d="M440.441 205.841C445.247 205.841 448.451 202.637 448.451 197.832V67.2788C448.451 62.4732 444.446 59.2695 439.64 59.2695C367.556 64.876 289.064 28.8338 261.832 2.40282C258.628 -0.800939 253.822 -0.800939 250.619 2.40282C223.387 29.6347 144.895 64.876 72.8103 59.2695C68.0047 59.2695 64 62.4732 64 67.2788V260.305C64 321.977 91.2319 379.645 138.487 418.09L250.619 510.198C253.822 512.601 257.827 512.601 261.031 510.198L373.162 418.09C420.418 378.844 447.65 321.176 447.65 260.305V234.675C447.65 229.869 444.446 226.666 439.64 226.666C434.835 226.666 431.631 229.869 431.631 234.675V260.305C431.631 312.366 410.806 360.422 373.963 396.465V351.612C373.963 339.598 364.352 329.186 351.537 329.186H301.879V309.963H351.537C363.551 309.963 373.963 300.352 373.963 287.537V257.902H378.769C396.389 257.902 410.806 243.485 410.806 225.865C410.806 208.244 396.389 193.827 378.769 193.827H373.963V156.984C373.963 144.97 364.352 134.558 351.537 134.558H299.476C296.272 116.136 281.855 101.719 264.235 98.5154V76.8901C264.235 72.0845 261.031 68.8807 256.225 68.8807C251.42 68.8807 248.216 72.0845 248.216 76.8901V98.5154C230.595 101.719 216.178 116.136 212.975 134.558H160.914C148.899 134.558 138.487 144.169 138.487 156.984V193.827H133.682C116.061 193.827 101.644 208.244 101.644 225.865C101.644 243.485 116.061 257.902 133.682 257.902H138.487V288.338C138.487 300.352 148.099 310.764 160.914 310.764H210.572V329.987H160.914C148.899 329.987 138.487 339.598 138.487 352.413V397.266C101.644 362.024 80.8197 313.167 80.8197 261.106V76.0892C151.302 78.492 224.989 46.4544 257.026 19.2225C289.064 47.2554 362.75 78.492 432.432 76.0892V197.832C432.432 201.837 436.436 205.841 440.441 205.841ZM257.026 114.534C269.841 114.534 281.054 123.345 284.258 135.359H229.794C232.998 123.345 244.211 114.534 257.026 114.534ZM379.57 210.647C388.38 210.647 395.589 217.855 395.589 226.666C395.589 235.476 388.38 242.684 379.57 242.684H374.764V210.647H379.57ZM134.483 242.684C125.672 242.684 118.464 235.476 118.464 226.666C118.464 217.855 125.672 210.647 134.483 210.647H139.288V242.684H134.483ZM155.307 288.338C155.307 285.134 155.307 159.387 155.307 157.785C155.307 154.581 157.71 151.377 161.715 151.377H353.139C356.343 151.377 359.546 153.78 359.546 157.785C359.546 186.619 359.546 259.504 359.546 288.338C359.546 291.542 356.343 294.745 353.139 294.745C342.727 294.745 165.719 294.745 161.715 294.745C157.71 294.745 155.307 291.542 155.307 288.338ZM226.591 310.764H286.661V329.987H226.591V310.764ZM161.715 346.005C260.23 346.005 221.785 346.005 353.139 346.005C356.343 346.005 359.546 348.408 359.546 352.413V410.882L257.026 494.179L155.307 410.081V351.612C155.307 348.408 157.71 346.005 161.715 346.005Z" fill="#111111"/>
<path d="M226.591 250.694C226.591 267.513 240.207 281.129 257.026 281.129C273.846 281.129 287.462 267.513 287.462 250.694C287.462 245.888 284.258 242.684 279.453 242.684C274.647 242.684 271.443 245.888 271.443 250.694C271.443 258.703 265.036 265.111 257.026 265.111C249.017 265.111 242.609 258.703 242.609 250.694C242.609 245.888 239.406 242.684 234.6 242.684C229.794 242.684 226.591 245.888 226.591 250.694Z" fill="#111111"/>
<path d="M239.406 197.832C239.406 177.808 223.387 161.79 203.363 161.79C183.34 161.79 167.321 177.808 167.321 197.832C167.321 217.855 183.34 233.874 203.363 233.874C222.586 233.874 239.406 217.855 239.406 197.832ZM182.539 197.832C182.539 186.619 191.349 177.808 202.562 177.808C213.775 177.808 222.586 186.619 222.586 197.832C222.586 209.045 213.775 217.855 202.562 217.855C191.349 217.855 182.539 209.045 182.539 197.832Z" fill="#111111"/>
<path d="M311.49 233.874C331.513 233.874 347.532 217.855 347.532 197.832C347.532 177.808 331.513 161.79 311.49 161.79C291.467 161.79 275.448 177.808 275.448 197.832C274.647 217.855 291.467 233.874 311.49 233.874ZM311.49 177.007C322.703 177.007 331.513 185.818 331.513 197.031C331.513 208.244 322.703 217.054 311.49 217.054C300.277 217.054 291.467 208.244 291.467 197.031C290.666 186.619 300.277 177.007 311.49 177.007Z" fill="#111111"/>
<path d="M232.998 434.109H281.054C285.86 434.109 289.064 430.905 289.064 426.099V378.043C289.064 373.237 285.86 370.034 281.054 370.034H232.998C228.192 370.034 224.989 373.237 224.989 378.043V426.099C224.989 430.104 228.192 434.109 232.998 434.109ZM241.007 386.052H273.045V418.09H241.007V386.052Z" fill="#111111"/>
</svg>
